<svg xmlns="http://www.w3.org/2000/svg" xmlns:xlink="http://www.w3.org/1999/xlink" width="300" height="400" viewBox="0 0 300 400">
  <defs>
    <linearGradient id="linear-gradient" x1="0.24" y1="0.24" x2="0.76" y2="0.761" gradientUnits="objectBoundingBox">
      <stop offset="0.274" stop-color="#15346b"/>
      <stop offset="1" stop-color="#0ca7dd"/>
    </linearGradient>
    <linearGradient id="linear-gradient-2" x1="0.352" y1="1.076" x2="0.805" y2="-0.041" gradientUnits="objectBoundingBox">
      <stop offset="0" stop-color="#15346b"/>
      <stop offset="1" stop-color="#0ca7dd"/>
    </linearGradient>
    <clipPath id="clip-iPhone_12_12_Pro_1">
      <rect width="300" height="400"/>
    </clipPath>
  </defs>
  <g id="iPhone_12_12_Pro_1" data-name="iPhone 12, 12 Pro – 1" clip-path="url(#clip-iPhone_12_12_Pro_1)">
    <rect width="300" height="400" fill="#f4f5fa"/>
    <ellipse id="Elipse_114" data-name="Elipse 114" cx="229.5" cy="247.5" rx="229.5" ry="247.5" transform="translate(-425.872 -124.816) rotate(-21)" fill="#004481" opacity="0.52"/>
    <ellipse id="Elipse_115" data-name="Elipse 115" cx="227.5" cy="232" rx="227.5" ry="232" transform="translate(-11 399.685) rotate(-21)" fill="#004481" opacity="0.71"/>
    <g id="Grupo_2746" data-name="Grupo 2746" transform="translate(71.066 104.008)">
      <g id="Grupo_2747" data-name="Grupo 2747" transform="translate(9 23.667)">
        <rect id="Rectángulo_1" data-name="Rectángulo 1" width="5.725" height="5.939" transform="translate(194.123 80.843)" fill="#0ca7dd" opacity="0.65"/>
        <text id="Nuestra_prioridad_es_tu_bienestar_mental" data-name="Nuestra prioridad es tu bienestar mental" transform="translate(99.934 135.324)" fill="#15346b" font-size="10" font-family="CoolveticaRg-Regular, Coolvetica"><tspan x="-84.42" y="0">Nuestra prioridad es tu bienestar mental</tspan></text>
        <g id="Grupo_1" data-name="Grupo 1" transform="translate(0 82.197)">
          <path id="Trazado_1" data-name="Trazado 1" d="M30.152,208.114h5.685v24.569H30.152v-9.422H21.725v9.422H16V208.114h5.725v9.462h8.427Z" transform="translate(-16 -205.57)" fill="#15346b"/>
          <path id="Trazado_2" data-name="Trazado 2" d="M88.362,232.1a12.673,12.673,0,0,1-.2,2.266H76.356a2.976,2.976,0,0,0,3.1,1.988,3.343,3.343,0,0,0,2.942-1.431l4.492,2.663a9.343,9.343,0,1,1,1.471-5.486Zm-6.2-1.551a2.806,2.806,0,0,0-2.823-2.028,2.94,2.94,0,0,0-2.982,2.028Z" transform="translate(-46.938 -214.213)" fill="#15346b"/>
          <path id="Trazado_3" data-name="Trazado 3" d="M130.143,223.6h5.724v17.731h-5.724v-.915a8.2,8.2,0,0,1-4.533,1.352,9.3,9.3,0,0,1,0-18.565,8.2,8.2,0,0,1,4.533,1.351Zm-.041,6.957a3.882,3.882,0,0,0-3.418-2.107,4.037,4.037,0,1,0,3.418,5.963Z" transform="translate(-73.77 -214.213)" fill="#15346b"/>
          <path id="Trazado_4" data-name="Trazado 4" d="M168.959,206.29l5.685-4.134V229.27h-5.685Z" transform="translate(-103.642 -202.156)" fill="#15346b"/>
          <path id="Trazado_5" data-name="Trazado 5" d="M197.063,227.385h.636v5.725h-1.67c-4.652,0-7.394-.994-7.394-6.56v-5.565H186.37V215.34h2.266v-2.266l5.725-4.215v6.481h5.247l-2.266,5.645H194.36v4.969C194.36,227.425,195.275,227.385,197.063,227.385Z" transform="translate(-113.618 -205.997)" fill="#15346b"/>
          <path id="Trazado_6" data-name="Trazado 6" d="M225.795,213.686a5.035,5.035,0,0,1,4.731-2.544c4.85,0,6,3.856,6,7.434V229.27H230.8v-7.911c0-1.829.239-4.97-2.146-4.97-.994,0-1.829.676-2.862,1.75V229.27H220.07V206.29l5.725-4.134Z" transform="translate(-132.927 -202.156)" fill="#15346b"/>
          <path id="Trazado_7" data-name="Trazado 7" d="M279.82,224.035,271.432,246.1a8.379,8.379,0,0,1-7.832,5.8h-1.789v-5.684l1.829.039c.478,0,1.709-.239,2.465-2.226l.834-2.187-6.837-17.81h6.122L270,233.854l3.737-9.819Z" transform="translate(-155.864 -214.692)" fill="#15346b"/>
          <path id="Trazado_8" data-name="Trazado 8" d="M327.751,208.114h6.559v24.569h-5.685v-16.34l-5.843,7.553-5.883-7.553v16.34h-5.685V208.114h6.559l5.009,6.48Z" transform="translate(-185.15 -205.57)" fill="#15346b"/>
          <path id="Trazado_9" data-name="Trazado 9" d="M373.215,209.221a3.44,3.44,0,1,1,3.419,3.061A3.23,3.23,0,0,1,373.215,209.221Zm6.321,22.343h-5.725V213.794h5.725Z" transform="translate(-220.675 -204.451)" fill="#15346b"/>
          <path id="Trazado_10" data-name="Trazado 10" d="M405.747,223.2c5.606,0,6.043,4.731,6.043,8.308v9.82h-5.725v-7.911c0-1.59.4-4.97-1.988-4.97-1.232,0-2.027.715-3.021,1.789v11.092h-5.685V223.555h5.685v2.187A4.935,4.935,0,0,1,405.747,223.2Z" transform="translate(-233.371 -214.213)" fill="#15346b"/>
          <path id="Trazado_11" data-name="Trazado 11" d="M452.724,211.92h5.725v22.944h-5.725v-.915a8.194,8.194,0,0,1-4.532,1.352,9.3,9.3,0,0,1,0-18.565,8.2,8.2,0,0,1,4.532,1.351Zm-.04,12.17a3.882,3.882,0,0,0-3.419-2.107,4.037,4.037,0,1,0,3.419,5.963Z" transform="translate(-258.601 -207.751)" fill="#15346b"/>
        </g>
        <g id="Grupo_2" data-name="Grupo 2" transform="translate(67.104 6)">
          <path id="Trazado_12" data-name="Trazado 12" d="M227.529,10.931a7.968,7.968,0,0,0-7.578,2.556c-1.723,1.924-1.885,4.422-1.892,6.9a9.956,9.956,0,0,1-.208,1.337l-.936-.935c-3.282-3.283-6.635-6.5-9.817-9.874a3.43,3.43,0,0,0-5.278-.012c-1.243,1.295-2.5,2.57-3.773,3.841-2.237,2.247-4.477,4.491-6.744,6.708A3.408,3.408,0,0,0,191.431,26a6.2,6.2,0,0,0,4.2,1.319,6.9,6.9,0,0,1,4.348,1.144,4.839,4.839,0,0,1,1.6,2.654,4.838,4.838,0,0,1-.481,4.222,5.644,5.644,0,0,1-5.31,2.918,4.893,4.893,0,0,1-4.819-4.488,38.1,38.1,0,0,0-.507-4.14,3.279,3.279,0,0,0-5.566-1.764q-3.31,3.351-6.651,6.673h0c-1.257,1.255-2.519,2.5-3.8,3.733a3.4,3.4,0,0,0,0,5.345c3.315,3.251,6.575,6.557,9.858,9.84l.913.912a10.708,10.708,0,0,1-1.366.195c-2.479,0-4.919.234-6.9,1.9a8.075,8.075,0,0,0-2.572,5.243c-.346,2.186.54,4,1.387,5.854l1.73,1.73a32.538,32.538,0,0,0,4.1,1.514,6.756,6.756,0,0,0,4.6-.674c3.422-1.752,4.531-4.772,4.451-8.406-.011-.525.065-1.051.117-1.808l.975.975c3.416,3.415,6.841,6.82,10.241,10.251a3.488,3.488,0,0,0,4.52.043q5.4-5.519,10.924-10.92a3.409,3.409,0,0,0-.129-4.552,6.2,6.2,0,0,0-4.2-1.32,6.9,6.9,0,0,1-4.348-1.143,4.839,4.839,0,0,1-1.6-2.655,4.836,4.836,0,0,1,.481-4.222,5.644,5.644,0,0,1,5.31-2.919,4.893,4.893,0,0,1,4.819,4.488,38.124,38.124,0,0,0,.506,4.14,3.278,3.278,0,0,0,5.566,1.764c3.53-3.573,7.1-7.109,10.646-10.665a3.16,3.16,0,0,0-.017-4.851q-5.085-5.095-10.178-10.18l-.845-.845c.723-.076,1.229-.153,1.737-.179,1.835-.095,3.722-.031,5.339-1.079a7.839,7.839,0,0,0,3.6-4.792,8.235,8.235,0,0,0-.691-6.11A7.836,7.836,0,0,0,227.529,10.931Z" transform="translate(-173.144 -9.667)" fill="url(#linear-gradient)"/>
          <path id="Trazado_13" data-name="Trazado 13" d="M175.779,44.946l.008,0s16.076,14.688,31.359,5.654a4.836,4.836,0,0,1,.481-4.222,5.644,5.644,0,0,1,5.31-2.919,4.95,4.95,0,0,1,4.714,3.817,24.111,24.111,0,0,1,10.8,1.932q3.012-3.012,6.024-6.023a3.16,3.16,0,0,0-.017-4.851q-5.085-5.095-10.178-10.18l-.845-.845c.723-.076,1.229-.153,1.737-.179,1.835-.095,3.722-.031,5.339-1.079a7.839,7.839,0,0,0,3.6-4.792,8.235,8.235,0,0,0-.691-6.11,7.836,7.836,0,0,0-5.893-4.214,7.967,7.967,0,0,0-7.578,2.556c-1.723,1.924-1.885,4.422-1.892,6.9a9.956,9.956,0,0,1-.208,1.337l-.936-.935c-3.282-3.283-6.635-6.5-9.817-9.874a3.43,3.43,0,0,0-5.278-.012c-1.243,1.295-2.5,2.57-3.773,3.841-2.237,2.247-4.477,4.491-6.744,6.708A3.408,3.408,0,0,0,191.431,26a6.2,6.2,0,0,0,4.2,1.319,6.9,6.9,0,0,1,4.348,1.144,4.839,4.839,0,0,1,1.6,2.654,4.838,4.838,0,0,1-.481,4.222,5.644,5.644,0,0,1-5.31,2.918,4.893,4.893,0,0,1-4.819-4.488,37.993,37.993,0,0,0-.507-4.14,3.279,3.279,0,0,0-5.566-1.764q-3.31,3.351-6.651,6.673h0c-1.257,1.255-2.519,2.5-3.8,3.733a3.4,3.4,0,0,0,0,5.345C174.892,44.059,175.333,44.5,175.779,44.946Z" transform="translate(-173.144 -9.667)" fill="url(#linear-gradient-2)"/>
        </g>
      </g>
    </g>
  </g>
</svg>
