<svg xmlns="http://www.w3.org/2000/svg" xmlns:xlink="http://www.w3.org/1999/xlink" width="480" height="700" viewBox="0 0 480 700">
  <defs>
    <linearGradient id="linear-gradient" x1="0.24" y1="0.24" x2="0.76" y2="0.761" gradientUnits="objectBoundingBox">
      <stop offset="0.274" stop-color="#15346b"/>
      <stop offset="1" stop-color="#0ca7dd"/>
    </linearGradient>
    <linearGradient id="linear-gradient-2" x1="0.352" y1="1.076" x2="0.805" y2="-0.041" gradientUnits="objectBoundingBox">
      <stop offset="0" stop-color="#15346b"/>
      <stop offset="1" stop-color="#0ca7dd"/>
    </linearGradient>
    <clipPath id="clip-Antes">
      <rect width="480" height="700"/>
    </clipPath>
  </defs>
  <g id="Antes" clip-path="url(#clip-Antes)">
    <rect width="480" height="700" fill="#f4f5fa"/>
    <ellipse id="Elipse_114" data-name="Elipse 114" cx="577" cy="589" rx="577" ry="589" transform="translate(-1113.691 -425.463) rotate(-21)" fill="#004481" opacity="0.52"/>
    <ellipse id="Elipse_115" data-name="Elipse 115" cx="227.5" cy="232" rx="227.5" ry="232" transform="translate(175.818 584.938) rotate(-21)" fill="#004481" opacity="0.71"/>
    <g id="Grupo_2746" data-name="Grupo 2746" transform="translate(36.066 215.96)">
      <rect id="Rectángulo_1" data-name="Rectángulo 1" width="10.767" height="11.17" transform="translate(381.101 161.714)" fill="#0ca7dd" opacity="0.65"/>
      <text id="Nuestra_prioridad_es_tu_bienestar_mental" data-name="Nuestra prioridad es tu bienestar mental" transform="translate(181.345 254.413)" fill="#15346b" font-size="16" font-family="CoolveticaRg-Regular, Coolvetica"><tspan x="-135.072" y="0">Nuestra prioridad es tu bienestar mental</tspan></text>
      <g id="Grupo_1" data-name="Grupo 1" transform="translate(16 164.262)">
        <path id="Trazado_1" data-name="Trazado 1" d="M42.617,208.114H53.309v46.209H42.617V236.6H26.767v17.721H16V208.114H26.767v17.8h15.85Z" transform="translate(-16 -203.329)" fill="#15346b"/>
        <path id="Trazado_2" data-name="Trazado 2" d="M104.539,239.946a23.836,23.836,0,0,1-.374,4.261H81.958c.673,2.244,2.768,3.739,5.832,3.739a6.287,6.287,0,0,0,5.533-2.691l8.449,5.009a17.573,17.573,0,1,1,2.767-10.318ZM92.876,237.03a5.277,5.277,0,0,0-5.309-3.814,5.529,5.529,0,0,0-5.609,3.814Z" transform="translate(-26.63 -206.298)" fill="#15346b"/>
        <path id="Trazado_3" data-name="Trazado 3" d="M141.873,223.945h10.766v33.348H141.873v-1.72a15.424,15.424,0,0,1-8.525,2.542c-9.121,0-16.523-7.851-16.523-17.5s7.4-17.421,16.523-17.421a15.43,15.43,0,0,1,8.525,2.541ZM141.8,237.03a7.3,7.3,0,0,0-6.429-3.963,7.594,7.594,0,1,0,6.429,11.216Z" transform="translate(-35.849 -206.298)" fill="#15346b"/>
        <path id="Trazado_4" data-name="Trazado 4" d="M168.959,209.932l10.692-7.776V253.15H168.959Z" transform="translate(-46.112 -202.156)" fill="#15346b"/>
        <path id="Trazado_5" data-name="Trazado 5" d="M206.481,243.7h1.2V254.47h-3.14c-8.749,0-13.906-1.87-13.906-12.338V231.665H186.37V221.047h4.261v-4.261l10.767-7.927v12.188h9.868L207,231.665H201.4v9.345C201.4,243.778,203.118,243.7,206.481,243.7Z" transform="translate(-49.54 -203.476)" fill="#15346b"/>
        <path id="Trazado_6" data-name="Trazado 6" d="M230.837,223.841c2.092-3.291,4.71-4.785,8.9-4.785,9.121,0,11.288,7.252,11.288,13.981V253.15H240.256v-14.88c0-3.44.449-9.347-4.036-9.347-1.869,0-3.44,1.271-5.383,3.291V253.15H220.07V209.932l10.767-7.776Z" transform="translate(-56.174 -202.156)" fill="#15346b"/>
        <path id="Trazado_7" data-name="Trazado 7" d="M297.188,224.035l-15.776,41.5c-3.365,8.749-10.394,10.915-14.73,10.915h-3.365v-10.69l3.44.074c.9,0,3.215-.449,4.637-4.187l1.569-4.113-12.859-33.5h11.514l7.1,18.468,7.028-18.468Z" transform="translate(-64.055 -206.463)" fill="#15346b"/>
        <path id="Trazado_8" data-name="Trazado 8" d="M342.317,208.114h12.335v46.209H343.96V223.592L332.97,237.8l-11.065-14.206v30.731H311.213V208.114h12.335L332.97,220.3Z" transform="translate(-74.117 -203.329)" fill="#15346b"/>
        <path id="Trazado_9" data-name="Trazado 9" d="M373.215,211.917c0-3.215,2.842-5.756,6.43-5.756s6.431,2.541,6.431,5.756-2.841,5.758-6.431,5.758S373.215,215.133,373.215,211.917ZM385.1,253.939H374.336V220.516H385.1Z" transform="translate(-86.323 -202.944)" fill="#15346b"/>
        <path id="Trazado_10" data-name="Trazado 10" d="M414.886,223.2c10.543,0,11.365,8.9,11.365,15.626v18.469H415.484v-14.88c0-2.991.749-9.347-3.739-9.347-2.318,0-3.813,1.345-5.681,3.365v20.861H395.372V223.87h10.692v4.113C408.232,224.692,410.55,223.2,414.886,223.2Z" transform="translate(-90.685 -206.298)" fill="#15346b"/>
        <path id="Trazado_11" data-name="Trazado 11" d="M464.454,211.92h10.767v43.152H464.454v-1.72a15.413,15.413,0,0,1-8.523,2.542c-9.122,0-16.525-7.851-16.525-17.5s7.4-17.421,16.525-17.421a15.419,15.419,0,0,1,8.523,2.541Zm-.075,22.889a7.3,7.3,0,0,0-6.431-3.963,7.593,7.593,0,1,0,6.431,11.216Z" transform="translate(-99.353 -204.078)" fill="#15346b"/>
      </g>
      <g id="Grupo_2" data-name="Grupo 2" transform="translate(142.208 9.667)">
        <path id="Trazado_12" data-name="Trazado 12" d="M275.429,12.044c-5.616-.885-10.512.629-14.253,4.808-3.24,3.618-3.545,8.316-3.559,12.971a18.72,18.72,0,0,1-.391,2.515l-1.76-1.759C249.293,24.406,242.988,18.359,237,12.009c-3.1-3.29-7.125-2.943-9.927-.022-2.337,2.435-4.711,4.834-7.1,7.223-4.207,4.227-8.42,8.447-12.683,12.616-1.963,1.919-2.173,6.556.242,8.562a11.657,11.657,0,0,0,7.908,2.481c2.88.009,5.752.309,8.178,2.151a9.1,9.1,0,0,1,3,4.992,9.1,9.1,0,0,1-.9,7.941c-2.363,3.553-5.334,5.724-9.986,5.489s-8.8-3.559-9.063-8.44a71.653,71.653,0,0,0-.953-7.786A6.166,6.166,0,0,0,195.249,43.9q-6.226,6.3-12.51,12.55h0c-2.364,2.36-4.737,4.71-7.147,7.021-3.06,2.935-3.465,6.66,0,10.054,6.234,6.114,12.366,12.332,18.54,18.507l1.716,1.716a20.139,20.139,0,0,1-2.569.366c-4.663,0-9.251.441-12.986,3.571-3.01,2.523-4.227,6.01-4.836,9.861-.651,4.112,1.015,7.515,2.609,11.009l3.253,3.254a61.191,61.191,0,0,0,7.714,2.847,12.707,12.707,0,0,0,8.66-1.268c6.436-3.3,8.521-8.975,8.372-15.81-.021-.987.123-1.977.22-3.4l1.834,1.834c6.424,6.423,12.866,12.827,19.261,19.279,1.971,1.989,6.369,2.258,8.5.08q10.158-10.381,20.545-20.538c1.962-1.919,2.172-6.555-.242-8.561a11.66,11.66,0,0,0-7.908-2.482c-2.881-.009-5.753-.308-8.178-2.15a9.1,9.1,0,0,1-3-4.993,9.094,9.094,0,0,1,.9-7.941c2.363-3.553,5.334-5.725,9.986-5.489s8.8,3.559,9.063,8.441A71.708,71.708,0,0,0,258,89.443a6.166,6.166,0,0,0,10.469,3.317c6.64-6.721,13.35-13.371,20.022-20.058,2.837-2.843,2.821-6.265-.033-9.124Q278.9,54,269.317,44.431l-1.589-1.589c1.361-.144,2.311-.288,3.267-.337,3.452-.178,7-.058,10.042-2.029a14.742,14.742,0,0,0,6.776-9.013,15.488,15.488,0,0,0-1.3-11.492A14.738,14.738,0,0,0,275.429,12.044Z" transform="translate(-173.144 -9.667)" fill="url(#linear-gradient)"/>
        <path id="Trazado_13" data-name="Trazado 13" d="M178.1,76.018l.015,0s30.236,27.625,58.98,10.634a9.094,9.094,0,0,1,.9-7.941c2.363-3.553,5.334-5.725,9.986-5.489a9.31,9.31,0,0,1,8.866,7.179,45.348,45.348,0,0,1,20.312,3.634q5.665-5.665,11.329-11.328c2.837-2.843,2.821-6.265-.033-9.124Q278.9,54,269.317,44.431l-1.589-1.589c1.36-.144,2.311-.288,3.266-.337,3.452-.178,7-.058,10.042-2.029a14.742,14.742,0,0,0,6.776-9.013,15.488,15.488,0,0,0-1.3-11.492,14.738,14.738,0,0,0-11.084-7.926c-5.616-.885-10.512.628-14.253,4.808-3.24,3.618-3.545,8.316-3.559,12.971a18.72,18.72,0,0,1-.391,2.515l-1.76-1.759C249.293,24.406,242.988,18.358,237,12.009c-3.1-3.29-7.125-2.943-9.927-.022-2.337,2.435-4.711,4.834-7.1,7.223-4.207,4.227-8.42,8.447-12.683,12.616-1.963,1.919-2.173,6.556.242,8.562a11.657,11.657,0,0,0,7.908,2.481c2.88.009,5.752.309,8.178,2.151a9.1,9.1,0,0,1,3,4.992,9.1,9.1,0,0,1-.9,7.941c-2.363,3.553-5.334,5.724-9.986,5.489s-8.8-3.559-9.063-8.44a71.456,71.456,0,0,0-.953-7.786A6.166,6.166,0,0,0,195.249,43.9q-6.226,6.3-12.51,12.55h0c-2.364,2.36-4.737,4.709-7.147,7.021-3.06,2.935-3.465,6.66,0,10.054C176.432,74.35,177.262,75.188,178.1,76.018Z" transform="translate(-173.144 -9.667)" fill="url(#linear-gradient-2)"/>
      </g>
    </g>
  </g>
</svg>
