<svg xmlns="http://www.w3.org/2000/svg" xmlns:xlink="http://www.w3.org/1999/xlink" width="1360" height="768" viewBox="0 0 1360 768">
  <defs>
    <linearGradient id="linear-gradient" x1="0.24" y1="0.24" x2="0.76" y2="0.761" gradientUnits="objectBoundingBox">
      <stop offset="0.274" stop-color="#15346b"/>
      <stop offset="1" stop-color="#0ca7dd"/>
    </linearGradient>
    <linearGradient id="linear-gradient-2" x1="0.352" y1="1.076" x2="0.805" y2="-0.041" gradientUnits="objectBoundingBox">
      <stop offset="0" stop-color="#15346b"/>
      <stop offset="1" stop-color="#0ca7dd"/>
    </linearGradient>
    <clipPath id="clip-Mesa_de_trabajo_2">
      <rect width="1360" height="768"/>
    </clipPath>
  </defs>
  <g id="Mesa_de_trabajo_2" data-name="Mesa de trabajo – 2" clip-path="url(#clip-Mesa_de_trabajo_2)">
    <rect width="1360" height="768" fill="#fff"/>
    <g id="Rectángulo_2413" data-name="Rectángulo 2413" fill="#f4f5fa" stroke="#707070" stroke-width="1">
      <rect width="1360" height="768" stroke="none"/>
      <rect x="0.5" y="0.5" width="1359" height="767" fill="none"/>
    </g>
    <ellipse id="Elipse_83" data-name="Elipse 83" cx="227.5" cy="232" rx="227.5" ry="232" transform="translate(938.818 632.938) rotate(-21)" fill="#004481" opacity="0.71"/>
    <g id="Grupo_2677" data-name="Grupo 2677" transform="translate(720.605 100.554)">
      <rect id="Rectángulo_1" data-name="Rectángulo 1" width="14.983" height="15.545" transform="translate(524.088 221.262)" fill="#0ca7dd" opacity="0.65"/>
      <text id="Nuestra_prioridad_es_tu_bienestar_mental" data-name="Nuestra prioridad es tu bienestar mental" transform="translate(252.229 351.39)" fill="#15346b" font-size="23" font-family="CoolveticaRg-Regular, Coolvetica"><tspan x="-194.166" y="0">Nuestra prioridad es tu bienestar mental</tspan></text>
      <g id="Grupo_1" data-name="Grupo 1" transform="translate(16 224.807)">
        <path id="Trazado_1" data-name="Trazado 1" d="M53.041,208.114H67.92V272.42H53.041V247.759H30.984V272.42H16V208.114H30.984v24.765H53.041Z" transform="translate(-16 -201.455)" fill="#15346b"/>
        <path id="Trazado_2" data-name="Trazado 2" d="M118.067,246.5a33.171,33.171,0,0,1-.521,5.93h-30.9c.937,3.123,3.852,5.2,8.117,5.2a8.75,8.75,0,0,0,7.7-3.745l11.758,6.971a24.455,24.455,0,1,1,3.85-14.359Zm-16.231-4.058a7.343,7.343,0,0,0-7.388-5.308c-3.954,0-6.763,2.082-7.806,5.308Z" transform="translate(-9.646 -199.68)" fill="#15346b"/>
        <path id="Trazado_3" data-name="Trazado 3" d="M151.683,224.237h14.982v46.408H151.683v-2.394a21.465,21.465,0,0,1-11.864,3.537c-12.693,0-22.994-10.925-22.994-24.347s10.3-24.243,22.994-24.243a21.474,21.474,0,0,1,11.864,3.536Zm-.106,18.209a10.161,10.161,0,0,0-8.947-5.516,10.331,10.331,0,0,0-10.093,10.511c0,5.826,4.577,10.613,10.093,10.613a10.364,10.364,0,0,0,8.947-5.516Z" transform="translate(-4.136 -199.68)" fill="#15346b"/>
        <path id="Trazado_4" data-name="Trazado 4" d="M168.959,212.977l14.88-10.821v70.966h-14.88Z" transform="translate(1.999 -202.156)" fill="#15346b"/>
        <path id="Trazado_5" data-name="Trazado 5" d="M214.358,257.349h1.665v14.984h-4.37c-12.175,0-19.353-2.6-19.353-17.17V240.6h-5.93V225.821h5.93v-5.93l14.984-11.031v16.962h13.733l-5.93,14.776h-7.8V253.6C207.284,257.453,209.677,257.349,214.358,257.349Z" transform="translate(4.048 -201.367)" fill="#15346b"/>
        <path id="Trazado_6" data-name="Trazado 6" d="M235.054,232.333c2.912-4.58,6.555-6.659,12.383-6.659,12.693,0,15.709,10.093,15.709,19.456v27.991H248.162V252.414c0-4.787.625-13.008-5.616-13.008-2.6,0-4.787,1.769-7.492,4.58v29.134H220.07V212.977l14.984-10.821Z" transform="translate(8.014 -202.156)" fill="#15346b"/>
        <path id="Trazado_7" data-name="Trazado 7" d="M311.712,224.035l-21.955,57.748c-4.683,12.175-14.465,15.19-20.5,15.19h-4.683V282.1l4.787.1c1.251,0,4.474-.625,6.452-5.826L278,270.65l-17.9-46.615h16.023l9.886,25.7,9.781-25.7Z" transform="translate(12.724 -199.581)" fill="#15346b"/>
        <path id="Trazado_8" data-name="Trazado 8" d="M354.5,208.114h17.166V272.42h-14.88V229.654l-15.294,19.769-15.4-19.769V272.42h-14.88V208.114h17.166l13.111,16.962Z" transform="translate(18.739 -201.455)" fill="#15346b"/>
        <path id="Trazado_9" data-name="Trazado 9" d="M373.215,214.171c0-4.474,3.954-8.01,8.948-8.01s8.949,3.536,8.949,8.01-3.954,8.013-8.949,8.013S373.215,218.647,373.215,214.171Zm16.544,58.479H374.775V226.138h14.984Z" transform="translate(26.035 -201.685)" fill="#15346b"/>
        <path id="Trazado_10" data-name="Trazado 10" d="M422.528,223.2c14.672,0,15.816,12.382,15.816,21.745v25.7H423.361V249.938c0-4.162,1.042-13.007-5.2-13.007-3.226,0-5.306,1.872-7.906,4.683v29.032h-14.88V224.133h14.88v5.724C413.268,225.277,416.494,223.2,422.528,223.2Z" transform="translate(28.642 -199.68)" fill="#15346b"/>
        <path id="Trazado_11" data-name="Trazado 11" d="M474.264,211.92h14.984v60.053H474.264v-2.394a21.449,21.449,0,0,1-11.861,3.538c-12.695,0-23-10.925-23-24.347s10.3-24.243,23-24.243a21.457,21.457,0,0,1,11.861,3.536Zm-.1,31.854a10.16,10.16,0,0,0-8.949-5.516,10.333,10.333,0,0,0-10.093,10.511c0,5.826,4.58,10.613,10.093,10.613a10.362,10.362,0,0,0,8.949-5.516Z" transform="translate(33.824 -201.007)" fill="#15346b"/>
      </g>
      <g id="Grupo_2" data-name="Grupo 2" transform="translate(191.635 9.667)">
        <path id="Trazado_12" data-name="Trazado 12" d="M315.488,12.975c-7.816-1.232-14.628.875-19.835,6.69-4.509,5.035-4.933,11.574-4.952,18.052a26.046,26.046,0,0,1-.544,3.5l-2.449-2.448c-8.59-8.592-17.365-17.008-25.7-25.844-4.318-4.579-9.916-4.1-13.814-.031-3.252,3.389-6.556,6.727-9.875,10.052C232.468,28.829,226.6,34.7,220.672,40.5c-2.732,2.67-3.024,9.124.336,11.916,3.279,2.725,6.928,3.439,11.006,3.452,4.008.012,8,.43,11.38,2.993,2.312,1.756,3.4,4.3,4.177,6.947,1.121,3.824,1.03,7.608-1.258,11.052-3.288,4.945-7.424,7.966-13.9,7.638S220.169,79.549,219.8,72.757a99.715,99.715,0,0,0-1.327-10.835,8.581,8.581,0,0,0-14.569-4.617Q195.243,66.077,186.5,74.77h0c-3.289,3.284-6.592,6.554-9.946,9.771-4.258,4.085-4.822,9.268-.006,13.991,8.675,8.509,17.209,17.162,25.8,25.755l2.388,2.387a28.027,28.027,0,0,1-3.575.51c-6.489,0-12.874.614-18.072,4.969-4.189,3.511-5.882,8.364-6.731,13.723-.906,5.722,1.413,10.458,3.631,15.321l4.528,4.529c3.571,1.356,7.048,3.11,10.735,3.962a17.683,17.683,0,0,0,12.052-1.765c8.957-4.586,11.859-12.49,11.651-22-.029-1.374.171-2.752.306-4.732l2.553,2.553c8.94,8.938,17.905,17.85,26.8,26.83,2.743,2.767,8.863,3.143,11.829.112q14.136-14.446,28.591-28.581c2.731-2.67,3.023-9.122-.336-11.914-3.28-2.725-6.93-3.44-11.006-3.454-4.009-.012-8.006-.429-11.381-2.992-2.312-1.757-3.4-4.3-4.176-6.949-1.121-3.824-1.032-7.608,1.259-11.05,3.288-4.945,7.424-7.967,13.9-7.639s12.245,4.954,12.613,11.747a99.781,99.781,0,0,0,1.326,10.835A8.58,8.58,0,0,0,305.8,125.3c9.24-9.353,18.578-18.607,27.864-27.914,3.948-3.957,3.925-8.719-.046-12.7q-13.308-13.335-26.64-26.645l-2.212-2.212c1.893-.2,3.217-.4,4.547-.469,4.8-.248,9.742-.08,13.974-2.823,4.624-3,8.035-6.92,9.43-12.543a21.554,21.554,0,0,0-1.808-15.993A20.509,20.509,0,0,0,315.488,12.975Z" transform="translate(-173.144 -9.667)" fill="url(#linear-gradient)"/>
        <path id="Trazado_13" data-name="Trazado 13" d="M180.041,102l.021-.007s42.077,38.443,82.079,14.8c-1.121-3.824-1.032-7.608,1.259-11.05,3.288-4.945,7.424-7.967,13.9-7.639,5.886.3,11.153,4.179,12.338,9.991a63.108,63.108,0,0,1,28.267,5.057q7.883-7.883,15.766-15.765c3.948-3.957,3.925-8.719-.046-12.7q-13.308-13.335-26.64-26.645l-2.211-2.212c1.892-.2,3.216-.4,4.546-.469,4.8-.248,9.742-.08,13.974-2.823,4.624-3,8.035-6.92,9.43-12.543a21.554,21.554,0,0,0-1.808-15.993,20.509,20.509,0,0,0-15.425-11.03c-7.816-1.232-14.628.874-19.835,6.69-4.509,5.035-4.933,11.574-4.952,18.052a26.046,26.046,0,0,1-.544,3.5l-2.449-2.448c-8.59-8.592-17.365-17.009-25.7-25.844-4.318-4.579-9.916-4.1-13.814-.031-3.252,3.389-6.556,6.727-9.875,10.052C232.468,28.829,226.6,34.7,220.672,40.5c-2.732,2.67-3.024,9.124.336,11.916,3.279,2.725,6.928,3.439,11.006,3.452,4.008.012,8,.43,11.38,2.993,2.312,1.756,3.4,4.3,4.177,6.947,1.121,3.824,1.03,7.608-1.258,11.052-3.288,4.945-7.424,7.966-13.9,7.638S220.169,79.549,219.8,72.757a99.443,99.443,0,0,0-1.327-10.835,8.581,8.581,0,0,0-14.569-4.617Q195.243,66.077,186.5,74.77h0c-3.289,3.284-6.592,6.553-9.946,9.771-4.258,4.085-4.822,9.268-.006,13.991C177.72,99.682,178.874,100.849,180.041,102Z" transform="translate(-173.144 -9.667)" fill="url(#linear-gradient-2)"/>
      </g>
    </g>
    <ellipse id="Elipse_84" data-name="Elipse 84" cx="577" cy="589" rx="577" ry="589" transform="translate(-590.691 -425.463) rotate(-21)" fill="#004481" opacity="0.52"/>
  </g>
</svg>
